<?xml version="1.0" encoding="utf-8"?>
<!-- Generator: Adobe Illustrator 24.1.1, SVG Export Plug-In . SVG Version: 6.00 Build 0)  -->
<svg version="1.1" id="Layer_1" xmlns="http://www.w3.org/2000/svg" xmlns:xlink="http://www.w3.org/1999/xlink" x="0px" y="0px"
	 viewBox="0 0 512 512" style="enable-background:new 0 0 512 512;" xml:space="preserve">
<g>
	<path fill="#faf7f0" d="M213.3,277.3H192v85.3h64v64h64l0,21.3v8.8l55.2,55.2H512V396.5L286.9,171.4l-15.1,15.1l20.4,6.3
		c4.3-13.8,6.5-28.5,6.5-43.4C298.6,66.9,231.8,0,149.3,0C66.9,0,0,66.9,0,149.3c0,82.4,66.9,149.3,149.3,149.3
		c21.8,0,42.8-4.7,61.5-13.2L202,266l-15.1,15.1l11.3,11.3L213.3,277.3H192H213.3l15.1-15.1l-11.3-11.3l-10.4-10.4l-13.4,6.1
		c-13.3,6-28.2,9.4-43.9,9.4c-29.5,0-56-11.9-75.4-31.3c-19.4-19.4-31.3-45.9-31.3-75.4c0-29.5,11.9-56,31.3-75.4
		c19.4-19.4,45.9-31.3,75.4-31.3c29.5,0,56,11.9,75.4,31.3c19.4,19.4,31.3,45.9,31.3,75.4c0,10.7-1.6,21.2-4.6,30.8l-3.8,12.3
		l221.7,221.7l0,55.2h-76.5l-30.2-30.2V384h-64v-64h-64v-51.5l-6.2-6.2L213.3,277.3z M128,149.3V128h0l0,0v0V149.3v21.3
		c23.6,0,42.7-19.1,42.7-42.7c0-23.6-19.1-42.7-42.7-42.7S85.3,104.4,85.3,128c0,23.6,19.1,42.7,42.7,42.7V149.3z"/>
</g>
</svg>
